<svg xmlns="http://www.w3.org/2000/svg" xml:space="preserve" width="655.359" height="655.359" style="shape-rendering:geometricPrecision;text-rendering:geometricPrecision;image-rendering:optimizeQuality;fill-rule:evenodd;clip-rule:evenodd" viewBox="0 0 6.827 6.827"><defs><style>.fil0{fill:#ffffff;fill-rule:nonzero}</style></defs><g id="Layer_x0020_1"><path class="fil0" d="M3.413 3.753a1.17 1.17 0 0 1 1.174 1.173 1.17 1.17 0 0 1-1.174 1.173A1.17 1.17 0 0 1 2.24 4.926a1.17 1.17 0 0 1 1.173-1.173zm.68.494a.957.957 0 0 0-1.358 0 .957.957 0 0 0 0 1.358.957.957 0 0 0 1.357 0 .957.957 0 0 0 0-1.358z"/><path class="fil0" d="M3.413 4.073a.85.85 0 0 1 .854.853.85.85 0 0 1-.854.853.85.85 0 0 1-.853-.853.85.85 0 0 1 .853-.853zm.453.4a.638.638 0 0 0-.905 0 .638.638 0 0 0 0 .906.638.638 0 0 0 .905 0 .638.638 0 0 0 0-.906z"/><path class="fil0" d="m3.515 4.627.035.11h.446l-.267.193-.094.068.036.11.102.313-.266-.194-.094-.069-.094.069-.266.194.103-.313.036-.11-.094-.068-.267-.194.33.001h.115l.036-.11.101-.314zM2.773 3.947V3.52h1.28v.427H3.84v-.214h-.853v.214zM1.587.847l2.098 2.389.155.176H2.773l-.032-.036-1.649-1.95-.058-.066.054-.07.405-.543.094.1zM3.37 3.199 1.513 1.084l-.203.266L2.87 3.2h.5zM5.318 1.083 3.79 2.813l.263.28 1.464-1.744-.2-.266zM5.245.844l.086-.097.079.104.33.44.052.07-.058.064-1.601 1.898-.08.09-.545-.6L5.245.843z"/><path class="fil0" d="M1.493.747h3.84V.96h-3.84V.747zm3.36.746H1.876V1.28h3.118l-.143.213z"/></g><path style="fill:none" d="M0 0h6.827v6.827H0z" id="Layer_x0020_1_0"/></svg>